<?xml version="1.0" encoding="UTF-8"?>
<svg id="_图层_2" data-name="图层 2" xmlns="http://www.w3.org/2000/svg" viewBox="0 0 65.07 64.53">
  <defs>
    <style>
      .cls-1 {
        fill: #2cc382;
      }

      .cls-1, .cls-2, .cls-3 {
        stroke-width: 0px;
      }

      .cls-2 {
        fill: #6e93da;
      }

      .cls-3 {
        fill: #b4fde3;
      }
    </style>
  </defs>
  <g id="_图层_1-2" data-name="图层 1">
    <g>
      <path class="cls-2" d="M57.8,40.21c2.9,1.8,4.13,5.88,2.71,8.98-1.46,3.19-5.52,4.93-8.83,3.74.57,3.08-1.12,6.5-3.99,7.82-3.1,1.43-7.17.21-8.98-2.67-.28,3.72-3.93,6.71-7.59,6.43-3.08-.23-5.81-2.74-6.43-5.74-.34.4-.56.66-.56.66-2.22,2.6-6.43,3.19-9.29,1.32-2.79-1.83-3.93-5.8-2.58-8.84-3.1.9-6.78-.62-8.29-3.5-1.59-3.02-.59-7.16,2.21-9.11C2.73,38.86-.08,35.57,0,32.11c.08-3.58,3.24-6.84,6.85-6.93-2.8-2.05-3.66-6.3-1.91-9.28,1.95-3.34,6.86-4.61,10.09-2.29-2.19-3.21-.94-8,2.33-9.93,3.07-1.82,7.5-.88,9.5,2.11.61-3.7,4.59-6.34,8.23-5.68,3.08.56,5.55,3.41,5.81,6.5,2.24-2.5,6.38-3.04,9.19-1.18,2.75,1.82,3.88,5.7,2.6,8.72,3.22-1.39,7.21-.13,8.7,2.7,1.52,2.9.21,7.04-2.9,8.86,3.94.17,7.02,4.15,6.53,7.96-.43,3.39-3.63,6.2-7.04,6.2M50.35,38.22c2.47.11,4.87-1.81,5.29-4.25.48-2.74-1.61-5.71-4.46-5.97,2.31-1.21,3.39-4.16,2.39-6.3-.98-2.09-3.82-3.13-6.2-2.23,1.02-2.14.33-4.98-1.59-6.38-1.97-1.44-4.98-1.18-6.68.55-.08-2.24-1.78-4.38-3.98-4.89-2.61-.6-5.57,1.18-6.13,3.83-1.34-2.23-4.51-3.05-6.79-1.84-2.42,1.29-3.48,4.71-2.01,7.1-2.26-1.78-5.84-1.02-7.36,1.32-1.36,2.1-.88,5.19,1.08,6.77-2.61-.05-5,2.2-5.17,4.78s1.75,4.97,4.22,5.4c-2.08,1.31-2.94,4.27-1.9,6.5,1,2.13,3.6,3.34,5.87,2.8-1.08,2.16-.38,5.06,1.57,6.47s5.06,1.15,6.75-.65c0,0,.17-.18.43-.46.35,2.19,2.24,4.09,4.46,4.36,2.64.32,5.37-1.72,5.7-4.4,1.21,2.15,4.11,3.15,6.39,2.23,2.12-.86,3.45-3.28,3.14-5.52,2.35.97,5.34-.15,6.5-2.41s.38-5.18-1.66-6.58"/>
      <rect class="cls-2" x="32.96" y="17.16" width="1.88" height="9.21" transform="translate(.56 -.84) rotate(1.44)"/>
      <circle class="cls-2" cx="34.28" cy="15.16" r="3.45"/>
      <rect class="cls-2" x="27.58" y="17.92" width="1.88" height="9.21" transform="translate(-7.3 16.38) rotate(-28.56)"/>
      <circle class="cls-1" cx="24.77" cy="16.92" r="3.45"/>
      <rect class="cls-2" x="23.3" y="21.26" width="1.88" height="9.21" transform="translate(-10.48 33.06) rotate(-58.56)"/>
      <circle class="cls-2" cx="17.97" cy="22.68" r="3.45"/>
      <rect class="cls-2" x="21.26" y="26.3" width="1.88" height="9.21" transform="translate(-9.26 52.32) rotate(-88.56)"/>
      <circle class="cls-1" cx="15.59" cy="31.47" r="3.45"/>
      <rect class="cls-2" x="22.01" y="31.68" width="1.88" height="9.21" transform="translate(2.06 73.8) rotate(-118.56)"/>
      <circle class="cls-2" cx="16.78" cy="39.95" r="3.45"/>
      <rect class="cls-2" x="25.36" y="35.96" width="1.88" height="9.21" transform="translate(27.58 88.9) rotate(-148.56)"/>
      <circle class="cls-1" cx="22.4" cy="46.25" r="3.45"/>
      <rect class="cls-2" x="30.4" y="38" width="1.88" height="9.21" transform="translate(61.59 85.99) rotate(-178.56)"/>
      <circle class="cls-2" cx="30.71" cy="49.45" r="3.45"/>
      <rect class="cls-2" x="35.78" y="37.25" width="1.88" height="9.21" transform="translate(88.97 61.05) rotate(151.44)"/>
      <circle class="cls-1" cx="39.9" cy="46.84" r="3.45"/>
      <rect class="cls-2" x="40.06" y="33.9" width="1.88" height="9.21" transform="translate(95.24 23.61) rotate(121.44)"/>
      <circle class="cls-2" cx="45.83" cy="42.47" r="3.45"/>
      <rect class="cls-2" x="42.1" y="28.86" width="1.88" height="9.21" transform="translate(77.57 -8.71) rotate(91.44)"/>
      <circle class="cls-1" cx="49.4" cy="33.62" r="3.45"/>
      <rect class="cls-2" x="41.34" y="23.48" width="1.88" height="9.21" transform="translate(46.73 -22.47) rotate(61.44)"/>
      <circle class="cls-2" cx="47.25" cy="25.14" r="3.45"/>
      <rect class="cls-2" x="38" y="19.2" width="1.88" height="9.21" transform="translate(18.13 -16.81) rotate(31.44)"/>
      <circle class="cls-1" cx="42.11" cy="18.49" r="3.45"/>
      <circle class="cls-2" cx="32.62" cy="32.19" r="7.59"/>
      <circle class="cls-3" cx="32.74" cy="32.17" r="5.46"/>
    </g>
  </g>
</svg>